# xmcd CD database file
#
# Track frame offsets:
#	150
#	19465
#	51352
#	79951
#	97230
#	111357
#	129995
#	146359
#	159312
#	173614
#	186200
#	211972
#	224226
#	248195
#	276218
#	291830
#
# Disc length: 4008 seconds
#
# Revision: 0
# Processed by: cddbd v1.5.1PL0 Copyright (c) Steve Scherf et al.
# Submitted via: CDex 1.51
#
DISCID=fa0fa610
DTITLE=Take Five - Best of Jazz CD 1
DYEAR=2004
DGENRE=Jazz
TTITLE0=Bill Evans - Autumn Leaves
TTITLE1=John Coltrane - Naima
TTITLE2=Thelonius Monk - Blue Monk
TTITLE3=Gerry Mulligan - Catch as Catch Can
TTITLE4=Louis Armstrong - Up A Lazy River
TTITLE5=Herbie Mann - Afro Jazziac
TTITLE6=Nina Simone - My Baby Just Cares For Me
TTITLE7=Charlie Parker - Bird Feathers
TTITLE8=Quincy Jones Orchestra - Walk On The Wild Side
TTITLE9=Duke Ellington Orchestra - Caravan
TTITLE10=Miles Davis - Chasing The Wind
TTITLE11=Mel Torme - Night And Day
TTITLE12=Dinah Washington - I've Got You Under My Skin
TTITLE13=Ben Webster - I Got It Bad
TTITLE14=Wynton Kelly - Come Rain Or Come Shine
TTITLE15=Tony Bennett and the Count Basie Orchestra - Chicago
EXTD=YEAR: 2004
EXTT0=
EXTT1=
EXTT2=
EXTT3=
EXTT4=
EXTT5=
EXTT6=
EXTT7=
EXTT8=
EXTT9=
EXTT10=
EXTT11=
EXTT12=
EXTT13=
EXTT14=
EXTT15=
PLAYORDER=
